<?xml version="1.0" standalone="no"?>
<!DOCTYPE svg PUBLIC "-//W3C//DTD SVG 20010904//EN"
 "http://www.w3.org/TR/2001/REC-SVG-20010904/DTD/svg10.dtd">
<svg version="1.0" xmlns="http://www.w3.org/2000/svg"
 width="512.000000pt" height="512.000000pt" viewBox="0 0 512.000000 512.000000"
 preserveAspectRatio="xMidYMid meet">
<metadata>
Created by potrace 1.11, written by Peter Selinger 2001-2013
</metadata>
<g transform="translate(0.000000,512.000000) scale(0.100000,-0.100000)"
fill="#000000" stroke="none">
<path d="M1040 5102 c-199 -60 -325 -224 -328 -424 -1 -125 35 -220 120 -314
70 -76 169 -126 273 -139 l53 -7 0 -365 c0 -392 3 -366 -55 -493 -14 -30 -43
-95 -65 -145 -22 -49 -54 -119 -70 -155 -16 -36 -64 -141 -105 -235 -41 -93
-83 -188 -93 -210 -10 -22 -48 -107 -85 -190 -37 -82 -75 -168 -85 -190 -10
-22 -93 -209 -185 -415 -92 -206 -178 -400 -192 -430 -13 -30 -28 -64 -33 -75
-5 -11 -36 -78 -70 -150 -73 -151 -86 -187 -104 -273 -17 -80 -13 -248 9 -327
58 -218 220 -410 421 -498 151 -66 45 -62 1569 -62 1245 0 1461 3 1545 20 14
3 41 8 60 11 89 14 280 70 357 105 24 10 46 19 50 19 14 0 204 101 271 144 94
60 204 150 290 236 71 71 188 215 213 262 6 12 15 25 19 28 27 20 161 299 200
417 75 229 92 359 96 729 3 290 2 303 -18 344 -16 32 -32 47 -66 62 -43 19
-62 20 -361 15 -174 -3 -329 -8 -346 -11 -16 -3 -59 -11 -95 -17 -228 -39
-485 -140 -678 -265 l-82 -54 -83 53 c-45 30 -99 65 -120 78 -33 20 -46 40
-87 134 -26 61 -154 348 -284 639 l-236 530 0 368 0 368 28 1 c55 1 129 23
185 54 139 78 225 216 233 372 9 203 -99 363 -306 452 -30 13 -152 16 -870 17
-756 2 -840 1 -890 -14z"/>
</g>
</svg>
